<svg width="189" height="39" viewBox="0 0 189 39" fill="none" xmlns="http://www.w3.org/2000/svg">
<path d="M150.385 1.54785H157.985V13.0239C159.657 11.5545 161.608 10.8199 163.837 10.8199C166.446 10.8199 168.359 11.4912 169.575 12.8339C170.816 14.1512 171.437 15.9752 171.437 18.3059V29.6299H163.799V19.3699C163.799 18.5085 163.609 17.8625 163.229 17.4319C162.874 16.9759 162.292 16.7479 161.481 16.7479C159.961 16.7479 158.796 17.4319 157.985 18.7999V29.6299H150.385V1.54785Z" fill="white"/>
<path d="M135.885 30.1998C134.365 30.1998 132.769 30.0605 131.097 29.7818C129.45 29.5032 128.146 29.0978 127.183 28.5658V23.2078C128.222 23.8158 129.488 24.3352 130.983 24.7658C132.503 25.1712 133.871 25.3738 135.087 25.3738C135.822 25.3738 136.354 25.3358 136.683 25.2598C137.012 25.1585 137.177 24.9685 137.177 24.6898C137.177 24.4365 137.012 24.2465 136.683 24.1198C136.379 23.9932 135.796 23.8158 134.935 23.5878L133.187 23.0938C131.642 22.6378 130.413 22.1565 129.501 21.6498C128.614 21.1178 127.956 20.4845 127.525 19.7498C127.12 18.9898 126.917 18.0398 126.917 16.8998C126.917 14.8478 127.728 13.3278 129.349 12.3398C130.97 11.3265 133.187 10.8198 135.999 10.8198C137.342 10.8198 138.786 10.9718 140.331 11.2758C141.902 11.5545 143.067 11.9345 143.827 12.4158V17.6978C143.042 17.1912 141.99 16.7605 140.673 16.4058C139.356 16.0258 138.152 15.8358 137.063 15.8358C135.568 15.8358 134.821 16.0892 134.821 16.5958C134.821 16.8238 134.998 17.0138 135.353 17.1658C135.733 17.3178 136.379 17.4952 137.291 17.6978L138.887 18.0778C140.534 18.5085 141.8 19.0025 142.687 19.5598C143.574 20.1172 144.194 20.7758 144.549 21.5358C144.904 22.2705 145.081 23.1952 145.081 24.3098C145.081 26.1085 144.283 27.5398 142.687 28.6038C141.116 29.6678 138.849 30.1998 135.885 30.1998Z" fill="white"/>
<path d="M112.758 30.1998C109.085 30.1998 106.222 29.3638 104.17 27.6918C102.118 26.0198 101.092 23.6512 101.092 20.5858C101.092 17.5712 102.017 15.1898 103.866 13.4418C105.715 11.6938 108.375 10.8198 111.846 10.8198C114.075 10.8198 115.975 11.2378 117.546 12.0738C119.142 12.8845 120.345 14.0118 121.156 15.4558C121.967 16.8998 122.372 18.5212 122.372 20.3198V22.7898H108.312C108.92 24.4112 110.757 25.2218 113.822 25.2218C115.038 25.2218 116.279 25.1332 117.546 24.9558C118.838 24.7532 119.927 24.4745 120.814 24.1198V28.8698C119.851 29.2752 118.648 29.5918 117.204 29.8198C115.76 30.0732 114.278 30.1998 112.758 30.1998ZM115.19 18.3818C115.063 17.5712 114.709 16.9505 114.126 16.5198C113.543 16.0638 112.745 15.8358 111.732 15.8358C110.719 15.8358 109.921 16.0638 109.338 16.5198C108.781 16.9758 108.439 17.5965 108.312 18.3818H115.19Z" fill="white"/>
<path d="M74.9135 11.3898H82.2475V13.1758C83.0328 12.4158 83.9575 11.8332 85.0215 11.4278C86.0855 11.0225 87.2001 10.8198 88.3655 10.8198C90.9748 10.8198 92.8875 11.4912 94.1035 12.8338C95.3448 14.1512 95.9655 15.9752 95.9655 18.3058V29.6298H88.3275V19.3698C88.3275 18.5085 88.1375 17.8625 87.7575 17.4318C87.4028 16.9758 86.8201 16.7478 86.0095 16.7478C84.4895 16.7478 83.3241 17.4318 82.5135 18.7998V29.6298H74.9135V11.3898Z" fill="white"/>
<path d="M56.4855 38.3698C55.2949 38.3698 54.0662 38.2558 52.7995 38.0278C51.5582 37.7998 50.4815 37.4958 49.5695 37.1158V32.0618C51.5709 32.9232 53.8762 33.3538 56.4855 33.3538C58.1322 33.3538 59.3355 33.0118 60.0955 32.3278C60.8555 31.6692 61.2355 30.6938 61.2355 29.4018V28.3378C60.5515 28.8952 59.6902 29.3385 58.6515 29.6678C57.6382 30.0225 56.5615 30.1998 55.4215 30.1998C53.4962 30.1998 51.7862 29.7945 50.2915 28.9838C48.8222 28.1732 47.6822 27.0332 46.8715 25.5638C46.0862 24.0945 45.6935 22.4098 45.6935 20.5098C45.6935 18.5845 46.0862 16.8872 46.8715 15.4178C47.6822 13.9485 48.8222 12.8212 50.2915 12.0358C51.7609 11.2252 53.4582 10.8198 55.3835 10.8198C56.5742 10.8198 57.7015 11.0225 58.7655 11.4278C59.8295 11.8078 60.7415 12.3525 61.5015 13.0618V11.3898H68.8355V28.2998C68.8355 31.4918 67.8349 33.9618 65.8335 35.7098C63.8322 37.4832 60.7162 38.3698 56.4855 38.3698ZM57.4355 24.3098C58.2969 24.3098 59.0569 24.1072 59.7155 23.7018C60.3995 23.2712 60.9062 22.7012 61.2355 21.9918V19.0278C60.9062 18.3185 60.3995 17.7612 59.7155 17.3558C59.0569 16.9505 58.2969 16.7478 57.4355 16.7478C56.2449 16.7478 55.2949 17.0772 54.5855 17.7358C53.9015 18.3945 53.5595 19.3065 53.5595 20.4718C53.5595 21.6878 53.9015 22.6378 54.5855 23.3218C55.2949 23.9805 56.2449 24.3098 57.4355 24.3098Z" fill="white"/>
<path d="M36.382 9.33776C35.242 9.33776 34.292 8.97043 33.532 8.23577C32.772 7.5011 32.392 6.56377 32.392 5.42377C32.392 4.3091 32.772 3.38443 33.532 2.64977C34.292 1.88977 35.242 1.50977 36.382 1.50977C37.4967 1.50977 38.434 1.88977 39.194 2.64977C39.9794 3.40977 40.372 4.33443 40.372 5.42377C40.372 6.53843 39.9794 7.47576 39.194 8.23577C38.434 8.97043 37.4967 9.33776 36.382 9.33776ZM32.582 11.3898H40.182V29.6298H32.582V11.3898Z" fill="white"/>
<path d="M0.76001 3.06787H9.15801L15.162 19.0659L21.204 3.06787H29.564L18.962 29.6299H11.4L0.76001 3.06787Z" fill="white"/>
<circle cx="183" cy="23.6299" r="6" fill="url(#paint0_linear_1_167)"/>
<circle cx="36.5" cy="5.12988" r="4.5" fill="url(#paint1_linear_1_167)"/>
<defs>
<linearGradient id="paint0_linear_1_167" x1="183" y1="17.6299" x2="183" y2="29.6299" gradientUnits="userSpaceOnUse">
<stop stop-color="#EF3C87"/>
<stop offset="0.725" stop-color="#9F0244"/>
</linearGradient>
<linearGradient id="paint1_linear_1_167" x1="36.5" y1="0.629883" x2="36.5" y2="9.62988" gradientUnits="userSpaceOnUse">
<stop stop-color="#EF3C87"/>
<stop offset="0.725" stop-color="#9F0244"/>
</linearGradient>
</defs>
</svg>
