<svg width="37" height="44" viewBox="0 0 37 44" fill="none" xmlns="http://www.w3.org/2000/svg">
<g filter="url(#filter0_d_65_18)">
<path d="M9.53183 16.0454L13.8699 10.1761C16.674 6.38218 18.076 4.48523 19.3841 4.88609C20.6922 5.28696 20.6922 7.61357 20.6922 12.2668V12.7055C20.6922 14.3839 20.6922 15.223 21.2285 15.7494L21.2568 15.7766C21.8047 16.2919 22.6781 16.2919 24.4248 16.2919C27.5682 16.2919 29.1399 16.2919 29.6711 17.2452C29.6799 17.261 29.6885 17.2769 29.6968 17.293C30.1982 18.2611 29.2882 19.4923 27.4681 21.9548L23.1301 27.824C20.3259 31.6179 18.9239 33.5149 17.6158 33.114C16.3077 32.7131 16.3077 30.3865 16.3078 25.7332L16.3078 25.2946C16.3078 23.6163 16.3078 22.7771 15.7716 22.2508L15.7432 22.2235C15.1953 21.7082 14.3219 21.7082 12.5751 21.7082C9.43175 21.7082 7.86005 21.7082 7.32887 20.7549C7.32007 20.7391 7.31152 20.7232 7.30322 20.7072C6.80179 19.7391 7.7118 18.5079 9.53183 16.0454Z" fill="url(#paint0_radial_65_18)" shape-rendering="crispEdges"/>
<path d="M20.8782 16.1062L20.8782 16.1062L20.882 16.1099L20.9104 16.1372L20.9104 16.1372L20.9143 16.1409C21.2968 16.5006 21.7718 16.6526 22.328 16.7235C22.8648 16.7919 23.5462 16.7919 24.3902 16.7919H24.4248C26.0127 16.7919 27.149 16.7931 27.9583 16.9062C28.7742 17.0203 29.0889 17.2275 29.2344 17.4886L29.2344 17.4886C29.2367 17.4927 29.2389 17.4968 29.2412 17.501C29.2451 17.5082 29.249 17.5155 29.2528 17.5229L29.2528 17.5229C29.3854 17.779 29.3837 18.1299 29.0117 18.8284C28.641 19.5245 27.9863 20.4125 27.066 21.6576L22.728 27.5268C21.3166 29.4364 20.288 30.8263 19.4516 31.6953C18.5834 32.5975 18.1057 32.7412 17.7623 32.6359C17.4299 32.5341 17.1307 32.1685 16.9667 30.9515C16.8088 29.7797 16.8077 28.0762 16.8078 25.7332L16.8078 25.2947V25.2578C16.8078 24.45 16.8078 23.792 16.7361 23.2723C16.661 22.7288 16.4992 22.2644 16.1218 21.8939L16.1218 21.8939L16.118 21.8902L16.0896 21.8629L16.0896 21.8629L16.0857 21.8593C15.7032 21.4995 15.2282 21.3476 14.672 21.2767C14.1352 21.2082 13.4537 21.2082 12.6097 21.2082H12.5751C10.9873 21.2082 9.85094 21.2071 9.04166 21.0939C8.22578 20.9798 7.91111 20.7726 7.76564 20.5115C7.7593 20.5002 7.75316 20.4887 7.74721 20.4772L7.7472 20.4772C7.61455 20.2211 7.61627 19.8702 7.98829 19.1717C8.359 18.4757 9.01369 17.5876 9.93392 16.3426L14.272 10.4733C15.6834 8.56364 16.7119 7.17382 17.5482 6.30475C18.4165 5.40257 18.8942 5.2589 19.2376 5.36415C19.57 5.46601 19.8692 5.83153 20.0332 7.04858C20.1911 8.22036 20.1922 9.92379 20.1922 12.2668V12.7055V12.7424C20.1922 13.5502 20.1922 14.2082 20.2639 14.7278C20.339 15.2714 20.5008 15.7357 20.8782 16.1062Z" stroke="url(#paint1_linear_65_18)" shape-rendering="crispEdges"/>
</g>
<defs>
<filter id="filter0_d_65_18" x="0.166664" y="0.833374" width="36.6667" height="42.3334" filterUnits="userSpaceOnUse" color-interpolation-filters="sRGB">
<feFlood flood-opacity="0" result="BackgroundImageFix"/>
<feColorMatrix in="SourceAlpha" type="matrix" values="0 0 0 0 0 0 0 0 0 0 0 0 0 0 0 0 0 0 127 0" result="hardAlpha"/>
<feOffset dy="3"/>
<feGaussianBlur stdDeviation="3.5"/>
<feComposite in2="hardAlpha" operator="out"/>
<feColorMatrix type="matrix" values="0 0 0 0 0.4 0 0 0 0 0.1 0 0 0 0 0 0 0 0 0.12 0"/>
<feBlend mode="normal" in2="BackgroundImageFix" result="effect1_dropShadow_65_18"/>
<feBlend mode="normal" in="SourceGraphic" in2="effect1_dropShadow_65_18" result="shape"/>
</filter>
<radialGradient id="paint0_radial_65_18" cx="0" cy="0" r="1" gradientUnits="userSpaceOnUse" gradientTransform="translate(18.5 3.48417) rotate(90) scale(49.246 39.3968)">
<stop stop-color="white"/>
<stop offset="1" stop-color="white" stop-opacity="0"/>
</radialGradient>
<linearGradient id="paint1_linear_65_18" x1="18.5" y1="4.83337" x2="18.5" y2="33.1667" gradientUnits="userSpaceOnUse">
<stop offset="0.735221" stop-color="white" stop-opacity="0"/>
<stop offset="1" stop-color="white" stop-opacity="0.8"/>
</linearGradient>
</defs>
</svg>
