<svg width="121" height="120" viewBox="0 0 121 120" fill="none" xmlns="http://www.w3.org/2000/svg">
<rect x="0.99134" y="1.13233" width="119.017" height="117.735" rx="58.8676" fill="#070708"/>
<rect x="0.99134" y="1.13233" width="119.017" height="117.735" rx="58.8676" stroke="#1C1C21" stroke-width="1.44118"/>
<rect x="13.9619" y="14.1029" width="93.0762" height="91.7941" rx="45.8971" fill="#1C1C21"/>
<rect x="13.9619" y="14.1029" width="93.0762" height="91.7941" rx="45.8971" stroke="url(#paint0_linear_1_350)" stroke-width="1.44118"/>
<g clip-path="url(#clip0_1_350)">
<path d="M43.9402 35H77.0598C78.2527 34.9988 79.4341 35.233 80.5364 35.6889C81.6387 36.1449 82.6402 36.8138 83.4837 37.6573C84.3272 38.5008 84.9961 39.5023 85.4521 40.6046C85.908 41.7069 86.1422 42.8883 86.141 44.0812V75.9188C86.1422 77.1117 85.908 78.293 85.4521 79.3953C84.9961 80.4976 84.3272 81.4992 83.4837 82.3427C82.6402 83.1861 81.6387 83.855 80.5364 84.311C79.4341 84.767 78.2527 85.0011 77.0598 85H43.9402C42.7473 85.0011 41.5659 84.767 40.4636 84.311C39.3613 83.855 38.3598 83.1861 37.5163 82.3427C36.6728 81.4992 36.0039 80.4976 35.548 79.3953C35.092 78.293 34.8579 77.1117 34.859 75.9188V44.0812C34.8579 42.8883 35.092 41.7069 35.548 40.6046C36.0039 39.5023 36.6728 38.5008 37.5163 37.6573C38.3598 36.8138 39.3613 36.1449 40.4636 35.6889C41.5659 35.233 42.7473 34.9988 43.9402 35Z" fill="#330000"/>
<path d="M59.7094 65H51.7607L50.1368 70.0214C50.1186 70.1129 50.0669 70.1943 49.9918 70.2497C49.9167 70.305 49.8236 70.3303 49.7308 70.3205H45.7137C45.4787 70.3205 45.4146 70.1923 45.4787 69.9359L52.359 50.1282C52.4231 49.9145 52.4872 49.6795 52.5727 49.4231C52.6587 48.9651 52.7016 48.5001 52.7009 48.0342C52.6945 47.9807 52.7085 47.9267 52.7402 47.8831C52.7719 47.8395 52.8189 47.8095 52.8718 47.7991H58.406C58.577 47.7991 58.6624 47.8632 58.6838 47.9701L66.4829 69.9786C66.547 70.2137 66.4829 70.3205 66.2693 70.3205H61.8035C61.7279 70.3278 61.6523 70.3082 61.5897 70.2652C61.5272 70.2222 61.4818 70.1586 61.4616 70.0855L59.7094 65ZM53 60.6624H58.4274C58.2992 60.2137 58.1282 59.6795 57.9359 59.1239C57.7436 58.5684 57.5513 57.9273 57.359 57.2863C57.1667 56.6453 56.953 55.9829 56.7394 55.3205C56.5257 54.6581 56.3334 54.0384 56.1624 53.4188C55.9915 52.7991 55.8419 52.2649 55.6923 51.7521H55.6496C55.4576 52.6834 55.2151 53.6036 54.9231 54.5085C54.6026 55.5342 54.2821 56.6026 53.9402 57.6709C53.6411 58.7607 53.3206 59.7649 53 60.6624Z" fill="#FF9A00"/>
<path d="M71.1411 51.453C70.7903 51.4607 70.4416 51.3985 70.1151 51.2701C69.7886 51.1417 69.4909 50.9496 69.2394 50.7051C68.7498 50.1698 68.4891 49.4643 68.5129 48.7393C68.5002 48.3861 68.5622 48.0341 68.6948 47.7065C68.8273 47.3788 69.0274 47.0827 69.2821 46.8376C69.7957 46.3522 70.4771 46.0842 71.1838 46.0897C72.0171 46.0897 72.6582 46.3461 73.1283 46.8376C73.6016 47.3557 73.8545 48.0378 73.8334 48.7393C73.8464 49.1003 73.7869 49.4603 73.6585 49.7979C73.53 50.1356 73.3352 50.444 73.0855 50.7051C72.8337 50.9616 72.5299 51.161 72.1944 51.29C71.859 51.4191 71.4998 51.4746 71.1411 51.453ZM68.7479 70V53.547C68.7479 53.3333 68.8334 53.2478 69.0257 53.2478H73.2565C73.4488 53.2478 73.5342 53.3547 73.5342 53.547V70C73.5342 70.235 73.4488 70.3419 73.2565 70.3419H69.0684C69.0235 70.3456 68.9784 70.3391 68.9363 70.3229C68.8943 70.3067 68.8564 70.2812 68.8256 70.2483C68.7948 70.2155 68.7718 70.1761 68.7583 70.133C68.7449 70.09 68.7413 70.0446 68.7479 70Z" fill="#FF9A00"/>
</g>
<defs>
<linearGradient id="paint0_linear_1_350" x1="60.5" y1="14.8235" x2="60.5001" y2="105.176" gradientUnits="userSpaceOnUse">
<stop offset="0.278527" stop-color="#2F2F37"/>
<stop offset="1" stop-color="#2F2F37" stop-opacity="0"/>
</linearGradient>
<clipPath id="clip0_1_350">
<rect width="51.2821" height="50" fill="white" transform="translate(34.859 35)"/>
</clipPath>
</defs>
</svg>
