<svg width="122" height="120" viewBox="0 0 122 120" fill="none" xmlns="http://www.w3.org/2000/svg">
<rect x="1.49132" y="0.720588" width="119.017" height="117.735" rx="58.8676" fill="#070708"/>
<rect x="1.49132" y="0.720588" width="119.017" height="117.735" rx="58.8676" stroke="#1C1C21" stroke-width="1.44118"/>
<rect x="14.4619" y="13.6912" width="93.0762" height="91.7941" rx="45.8971" fill="#1C1C21"/>
<rect x="14.4619" y="13.6912" width="93.0762" height="91.7941" rx="45.8971" stroke="url(#paint0_linear_1_377)" stroke-width="1.44118"/>
<g clip-path="url(#clip0_1_377)">
<path d="M44.4402 34.5882H77.5598C78.7527 34.5871 79.9341 34.8212 81.0364 35.2772C82.1387 35.7332 83.1402 36.402 83.9837 37.2455C84.8272 38.089 85.4961 39.0906 85.952 40.1929C86.408 41.2951 86.6421 42.4765 86.641 43.6694V75.507C86.6421 76.6999 86.408 77.8813 85.952 78.9836C85.4961 80.0859 84.8272 81.0874 83.9837 81.9309C83.1402 82.7744 82.1387 83.4433 81.0364 83.8992C79.9341 84.3552 78.7527 84.5893 77.5598 84.5882H44.4402C43.2473 84.5893 42.0659 84.3552 40.9636 83.8992C39.8613 83.4433 38.8598 82.7744 38.0163 81.9309C37.1728 81.0874 36.5039 80.0859 36.0479 78.9836C35.592 77.8813 35.3578 76.6999 35.359 75.507V43.6694C35.3578 42.4765 35.592 41.2951 36.0479 40.1929C36.5039 39.0906 37.1728 38.089 38.0163 37.2455C38.8598 36.402 39.8613 35.7332 40.9636 35.2772C42.0659 34.8212 43.2473 34.5871 44.4402 34.5882Z" fill="#470137"/>
<path d="M62.3248 47.7293L55.9145 58.3062L62.7521 69.5241C62.7971 69.6015 62.8123 69.6927 62.7949 69.7805C62.7735 69.866 62.688 69.8019 62.5598 69.8233H57.6667C57.3248 69.8233 57.0897 69.8019 56.9402 69.5882C56.4914 68.6908 56.0214 67.8147 55.5726 66.9173C55.1239 66.0199 54.6325 65.1438 54.1197 64.225C53.6068 63.3062 53.094 62.3874 52.5812 61.4472H52.5385C52.0897 62.366 51.5983 63.2848 51.1068 64.2036C50.6154 65.1224 50.1239 66.0412 49.6538 66.9387C49.1838 67.8361 48.6709 68.7549 48.1795 69.631C48.094 69.8446 47.9231 69.866 47.688 69.866H42.9872C42.9017 69.866 42.8376 69.9087 42.8376 69.8019C42.8281 69.7619 42.8269 69.7204 42.8343 69.6799C42.8417 69.6394 42.8573 69.601 42.8803 69.5669L49.5256 58.6694L43.0513 47.7079C42.9872 47.6224 42.9658 47.537 43.0085 47.4942C43.0346 47.4638 43.0676 47.4401 43.1049 47.4252C43.1421 47.4103 43.1823 47.4047 43.2222 47.4088H48.0726C48.1737 47.411 48.2742 47.4253 48.3718 47.4515C48.4574 47.4975 48.5307 47.5635 48.5855 47.6438C48.9914 48.5626 49.4615 49.4814 49.953 50.4002C50.4444 51.319 50.9573 52.2164 51.4914 53.1139C52.0256 54.0113 52.4744 54.9088 52.9231 55.8276H52.9658C53.4145 54.8874 53.8846 53.9686 54.3547 53.0711C54.8248 52.1737 55.3162 51.2763 55.8077 50.3788C56.2991 49.4814 56.7692 48.5626 57.2393 47.6865C57.2555 47.6024 57.3009 47.5267 57.3675 47.4729C57.4521 47.4262 57.5506 47.411 57.6453 47.4301H62.1538C62.1791 47.4244 62.2052 47.4238 62.2307 47.4283C62.2562 47.4327 62.2806 47.4422 62.3024 47.4561C62.3243 47.47 62.3432 47.4881 62.358 47.5093C62.3728 47.5305 62.3833 47.5544 62.3889 47.5797C62.4103 47.6011 62.3675 47.6865 62.3248 47.7293Z" fill="#FF61F6"/>
<path d="M72.1966 70.272C70.6127 70.298 69.0431 69.9695 67.6026 69.3105C66.2623 68.6837 65.1391 67.6721 64.3761 66.4045C63.5855 65.1011 63.2009 63.4771 63.2009 61.5327C63.1792 59.9514 63.5852 58.3936 64.3761 57.0241C65.1869 55.6322 66.3614 54.4873 67.7735 53.7122C69.2692 52.8788 71.0641 52.4728 73.1795 52.4728C73.3293 52.4712 73.4792 52.4783 73.6282 52.4942C73.8205 52.5156 74.0342 52.5156 74.2906 52.537V45.7848C74.2906 45.6352 74.3547 45.5498 74.5043 45.5498H78.8419C78.8898 45.5433 78.9384 45.5551 78.9779 45.5828C79.0175 45.6105 79.0452 45.6521 79.0556 45.6993V66.084C79.0556 66.4686 79.0769 66.8959 79.0983 67.366C79.1197 67.8361 79.1624 68.2421 79.1838 68.6053C79.1883 68.6775 79.1702 68.7493 79.1318 68.8106C79.0935 68.8719 79.0369 68.9197 78.9701 68.9472C77.8509 69.4176 76.6827 69.7616 75.4872 69.9729C74.4012 70.1687 73.3001 70.2688 72.1966 70.272ZM74.2906 65.9985V56.5968C74.1003 56.5509 73.9078 56.5152 73.7137 56.4899C73.4786 56.4686 73.2436 56.4472 73.0085 56.4472C72.171 56.4378 71.3432 56.6282 70.594 57.0028C69.8638 57.3666 69.2387 57.9108 68.7778 58.584C68.3077 59.2677 68.0726 60.1865 68.0726 61.2976C68.054 62.0476 68.1773 62.7943 68.4359 63.4985C68.6425 64.068 68.9707 64.5856 69.3974 65.0156C69.8094 65.4087 70.3067 65.7012 70.8504 65.8703C71.4228 66.0577 72.0217 66.1515 72.6239 66.1481C72.9444 66.1481 73.2436 66.1267 73.5214 66.1053C73.7824 66.1239 74.0445 66.0876 74.2906 65.9985Z" fill="#FF61F6"/>
</g>
<defs>
<linearGradient id="paint0_linear_1_377" x1="61" y1="14.4117" x2="61.0001" y2="104.765" gradientUnits="userSpaceOnUse">
<stop offset="0.278527" stop-color="#2F2F37"/>
<stop offset="1" stop-color="#2F2F37" stop-opacity="0"/>
</linearGradient>
<clipPath id="clip0_1_377">
<rect width="51.2821" height="50" fill="white" transform="translate(35.359 34.5882)"/>
</clipPath>
</defs>
</svg>
