<svg width="122" height="120" viewBox="0 0 122 120" fill="none" xmlns="http://www.w3.org/2000/svg">
<rect x="1.49134" y="1.54411" width="119.017" height="117.735" rx="58.8676" fill="#070708"/>
<rect x="1.49134" y="1.54411" width="119.017" height="117.735" rx="58.8676" stroke="#1C1C21" stroke-width="1.44118"/>
<rect x="14.4619" y="14.5147" width="93.0762" height="91.7941" rx="45.8971" fill="#1C1C21"/>
<rect x="14.4619" y="14.5147" width="93.0762" height="91.7941" rx="45.8971" stroke="url(#paint0_linear_1_396)" stroke-width="1.44118"/>
<g clip-path="url(#clip0_1_396)">
<path d="M44.4402 35.4117H77.5599C78.7527 35.4106 79.9341 35.6447 81.0364 36.1007C82.1387 36.5567 83.1403 37.2256 83.9837 38.069C84.8272 38.9125 85.4961 39.9141 85.9521 41.0164C86.4081 42.1187 86.6422 43.3001 86.6411 44.4929V76.3305C86.6422 77.5234 86.4081 78.7048 85.9521 79.8071C85.4961 80.9094 84.8272 81.9109 83.9837 82.7544C83.1403 83.5979 82.1387 84.2668 81.0364 84.7228C79.9341 85.1787 78.7527 85.4129 77.5599 85.4117H44.4402C43.2473 85.4129 42.0659 85.1787 40.9637 84.7228C39.8614 84.2668 38.8598 83.5979 38.0163 82.7544C37.1728 81.9109 36.504 80.9094 36.048 79.8071C35.592 78.7048 35.3579 77.5234 35.359 76.3305V44.4929C35.3579 43.3001 35.592 42.1187 36.048 41.0164C36.504 39.9141 37.1728 38.9125 38.0163 38.069C38.8598 37.2256 39.8614 36.5567 40.9637 36.1007C42.0659 35.6447 43.2473 35.4106 44.4402 35.4117Z" fill="#001E36"/>
<path d="M46.8975 70.4758V48.4887C46.8975 48.3391 46.9616 48.2536 47.1111 48.2536C47.4744 48.2536 47.8163 48.2536 48.3077 48.2322C48.7992 48.2109 49.3547 48.2109 49.9316 48.1895C50.5086 48.1681 51.1282 48.1681 51.7906 48.1468C52.453 48.1254 53.094 48.1254 53.7351 48.1254C55.4872 48.1254 56.9402 48.3391 58.1368 48.7878C59.2094 49.1521 60.1875 49.7506 61 50.5399C61.6886 51.2307 62.2205 52.0615 62.5599 52.9758C62.8833 53.8663 63.0496 54.8062 63.0513 55.7536C63.0513 57.5912 62.624 59.1083 61.7693 60.3049C60.9106 61.4998 59.7117 62.4083 58.3291 62.9117C56.8761 63.4459 55.2735 63.6382 53.5214 63.6382C53.0086 63.6382 52.6667 63.6382 52.453 63.6169C52.2393 63.5955 51.9402 63.5955 51.5342 63.5955V70.4545C51.539 70.4896 51.5366 70.5254 51.5273 70.5596C51.518 70.5939 51.5019 70.6259 51.48 70.6538C51.4581 70.6817 51.4308 70.7049 51.3997 70.722C51.3687 70.7392 51.3345 70.7499 51.2992 70.7536H47.1539C46.9829 70.7536 46.8975 70.6681 46.8975 70.4758ZM51.5556 52.3775V59.557C51.8547 59.5784 52.1325 59.5998 52.3889 59.5998H53.5214C54.3555 59.6008 55.1847 59.471 55.9787 59.2152C56.6598 59.0148 57.2684 58.6215 57.7308 58.0827C58.1795 57.5485 58.3932 56.822 58.3932 55.8818C58.4133 55.2141 58.2428 54.5545 57.9017 53.9801C57.5455 53.4253 57.0215 52.9987 56.406 52.7622C55.6038 52.448 54.7455 52.3025 53.8846 52.3348C53.3291 52.3348 52.8376 52.3348 52.4316 52.3562C52.1396 52.3371 51.8464 52.3442 51.5556 52.3775Z" fill="#31A8FF"/>
<path d="M76.3847 58.2536C75.7395 57.9138 75.0486 57.6691 74.3334 57.5271C73.5479 57.3492 72.7456 57.2561 71.9402 57.2493C71.5078 57.2344 71.0756 57.2849 70.6582 57.3989C70.392 57.4543 70.1559 57.6066 69.9958 57.8263C69.8878 57.9996 69.8287 58.199 69.8248 58.4032C69.8348 58.6065 69.9097 58.8012 70.0385 58.9587C70.241 59.1963 70.4878 59.3922 70.765 59.5357C71.2565 59.7921 71.7693 60.0271 72.2821 60.2408C73.4365 60.6294 74.541 61.153 75.5727 61.8006C76.2744 62.2419 76.8547 62.8515 77.2607 63.5741C77.6041 64.2558 77.7729 65.012 77.7522 65.775C77.7695 66.7849 77.4788 67.7762 76.9188 68.6169C76.3228 69.4698 75.4912 70.1307 74.5257 70.5186C73.4787 70.9673 72.1966 71.2023 70.6582 71.2023C69.6827 71.2063 68.7092 71.1132 67.7522 70.9246C66.9986 70.7943 66.2656 70.5644 65.5727 70.2408C65.4982 70.2034 65.4362 70.1451 65.3945 70.0729C65.3527 70.0008 65.333 69.918 65.3377 69.8348V66.1169C65.3358 66.0804 65.3426 66.0439 65.3574 66.0105C65.3723 65.9771 65.3948 65.9477 65.4231 65.9246C65.4532 65.907 65.4882 65.8996 65.5228 65.9035C65.5574 65.9073 65.5899 65.9222 65.6154 65.9459C66.4385 66.4312 67.3325 66.7845 68.265 66.9929C69.0883 67.2072 69.9357 67.3149 70.7864 67.3134C71.5983 67.3134 72.1753 67.2066 72.5599 67.0143C72.7314 66.9351 72.8768 66.8085 72.979 66.6496C73.0812 66.4906 73.1359 66.3058 73.1368 66.1169C73.1368 65.8177 72.9659 65.5399 72.624 65.2622C72.2821 64.9844 71.577 64.6639 70.53 64.2579C69.4559 63.8794 68.4358 63.3622 67.4958 62.7194C66.8262 62.2422 66.2715 61.6218 65.8718 60.9032C65.5308 60.2283 65.362 59.4796 65.3804 58.7237C65.3835 57.8119 65.6347 56.9182 66.1069 56.1382C66.6497 55.2805 67.4288 54.5978 68.3505 54.1724C69.3547 53.6596 70.6154 53.4246 72.1325 53.4246C73.0192 53.4248 73.9047 53.4891 74.7821 53.6169C75.413 53.7022 76.0304 53.8674 76.6197 54.1083C76.7136 54.1416 76.7904 54.2108 76.8334 54.3006C76.858 54.384 76.8724 54.4701 76.8761 54.557V58.0399C76.8764 58.0815 76.8669 58.1225 76.8484 58.1596C76.8298 58.1968 76.8027 58.229 76.7693 58.2536C76.645 58.2983 76.509 58.2983 76.3847 58.2536Z" fill="#31A8FF"/>
</g>
<defs>
<linearGradient id="paint0_linear_1_396" x1="61" y1="15.2353" x2="61.0001" y2="105.588" gradientUnits="userSpaceOnUse">
<stop offset="0.278527" stop-color="#2F2F37"/>
<stop offset="1" stop-color="#2F2F37" stop-opacity="0"/>
</linearGradient>
<clipPath id="clip0_1_396">
<rect width="51.2821" height="50" fill="white" transform="translate(35.359 35.4117)"/>
</clipPath>
</defs>
</svg>
