<svg width="121" height="120" viewBox="0 0 121 120" fill="none" xmlns="http://www.w3.org/2000/svg">
<rect x="0.99134" y="1.54411" width="119.017" height="117.735" rx="58.8676" fill="#070708"/>
<rect x="0.99134" y="1.54411" width="119.017" height="117.735" rx="58.8676" stroke="#1C1C21" stroke-width="1.44118"/>
<rect x="13.9619" y="14.5147" width="93.0762" height="91.7941" rx="45.8971" fill="#1C1C21"/>
<rect x="13.9619" y="14.5147" width="93.0762" height="91.7941" rx="45.8971" stroke="url(#paint0_linear_1_319)" stroke-width="1.44118"/>
<g clip-path="url(#clip0_1_319)">
<path d="M43.9402 35.4117H77.0598C78.2527 35.4106 79.4341 35.6447 80.5364 36.1007C81.6387 36.5567 82.6402 37.2256 83.4837 38.0691C84.3272 38.9126 84.9961 39.9141 85.4521 41.0164C85.908 42.1187 86.1422 43.3001 86.141 44.4929V76.3306C86.1422 77.5234 85.908 78.7048 85.4521 79.8071C84.9961 80.9094 84.3272 81.9109 83.4837 82.7544C82.6402 83.5979 81.6387 84.2668 80.5364 84.7228C79.4341 85.1787 78.2527 85.4129 77.0598 85.4117H43.9402C42.7473 85.4129 41.5659 85.1787 40.4636 84.7228C39.3613 84.2668 38.3598 83.5979 37.5163 82.7544C36.6728 81.9109 36.0039 80.9094 35.548 79.8071C35.092 78.7048 34.8579 77.5234 34.859 76.3306V44.4929C34.8579 43.3001 35.092 42.1187 35.548 41.0164C36.0039 39.9141 36.6728 38.9126 37.5163 38.0691C38.3598 37.2256 39.3613 36.5567 40.4636 36.1007C41.5659 35.6447 42.7473 35.4106 43.9402 35.4117Z" fill="#000B1D"/>
<path d="M55.1582 76.4375C58.1084 76.4375 60.5001 74.0459 60.5001 71.0956V65.7538H55.1582C52.208 65.7538 49.8163 68.1454 49.8163 71.0956C49.8163 74.0459 52.208 76.4375 55.1582 76.4375Z" fill="#0ACF83"/>
<path d="M49.8163 60.4119C49.8163 57.4616 52.208 55.07 55.1582 55.07H60.5001V65.7538H55.1582C52.208 65.7538 49.8163 63.3621 49.8163 60.4119Z" fill="#A259FF"/>
<path d="M49.8163 49.728C49.8163 46.7777 52.208 44.3861 55.1582 44.3861H60.5001V55.0699H55.1582C52.208 55.0699 49.8163 52.6782 49.8163 49.728Z" fill="#F24E1E"/>
<path d="M60.5001 44.3862H65.842C68.7922 44.3862 71.1839 46.7779 71.1839 49.7281C71.1839 52.6784 68.7922 55.07 65.842 55.07H60.5001V44.3862Z" fill="#FF7262"/>
<path d="M71.1839 60.4119C71.1839 63.3621 68.7922 65.7538 65.842 65.7538C62.8917 65.7538 60.5001 63.3621 60.5001 60.4119C60.5001 57.4616 62.8917 55.07 65.842 55.07C68.7922 55.07 71.1839 57.4616 71.1839 60.4119Z" fill="#1ABCFE"/>
</g>
<defs>
<linearGradient id="paint0_linear_1_319" x1="60.5" y1="15.2353" x2="60.5001" y2="105.588" gradientUnits="userSpaceOnUse">
<stop offset="0.278527" stop-color="#2F2F37"/>
<stop offset="1" stop-color="#2F2F37" stop-opacity="0"/>
</linearGradient>
<clipPath id="clip0_1_319">
<rect width="51.2821" height="50" fill="white" transform="translate(34.859 35.4118)"/>
</clipPath>
</defs>
</svg>
