<svg width="79" height="78" viewBox="0 0 79 78" fill="none" xmlns="http://www.w3.org/2000/svg">
<rect x="1.60294" y="1.45593" width="75.7941" height="75.7941" rx="37.8971" fill="#1C1C21"/>
<rect x="1.60294" y="1.45593" width="75.7941" height="75.7941" rx="37.8971" stroke="url(#paint0_linear_6_146)" stroke-width="1.44118"/>
<rect x="24.625" y="24.478" width="29.75" height="29.75" rx="6" fill="url(#paint1_radial_6_146)"/>
<rect x="24.625" y="24.478" width="29.75" height="29.75" rx="6" fill="url(#paint2_radial_6_146)"/>
<rect x="24.625" y="24.478" width="29.75" height="29.75" rx="6" fill="white"/>
<path d="M46.9375 33.5093C46.9375 34.3895 46.2239 35.103 45.3437 35.103C44.4635 35.103 43.75 34.3895 43.75 33.5093C43.75 32.6291 44.4635 31.9155 45.3437 31.9155C46.2239 31.9155 46.9375 32.6291 46.9375 33.5093Z" fill="#1A1A1A"/>
<path fill-rule="evenodd" clip-rule="evenodd" d="M39.5 44.6655C42.434 44.6655 44.8125 42.287 44.8125 39.353C44.8125 36.419 42.434 34.0405 39.5 34.0405C36.566 34.0405 34.1875 36.419 34.1875 39.353C34.1875 42.287 36.566 44.6655 39.5 44.6655ZM39.5 42.5405C41.2604 42.5405 42.6875 41.1134 42.6875 39.353C42.6875 37.5926 41.2604 36.1655 39.5 36.1655C37.7396 36.1655 36.3125 37.5926 36.3125 39.353C36.3125 41.1134 37.7396 42.5405 39.5 42.5405Z" fill="#1A1A1A"/>
<path fill-rule="evenodd" clip-rule="evenodd" d="M28.875 38.928C28.875 35.3577 28.875 33.5725 29.5698 32.2088C30.181 31.0093 31.1563 30.0341 32.3558 29.4229C33.7195 28.728 35.5047 28.728 39.075 28.728H39.925C43.4953 28.728 45.2805 28.728 46.6442 29.4229C47.8437 30.0341 48.819 31.0093 49.4302 32.2088C50.125 33.5725 50.125 35.3577 50.125 38.928V39.778C50.125 43.3484 50.125 45.1335 49.4302 46.4972C48.819 47.6967 47.8437 48.672 46.6442 49.2832C45.2805 49.978 43.4953 49.978 39.925 49.978H39.075C35.5047 49.978 33.7195 49.978 32.3558 49.2832C31.1563 48.672 30.181 47.6967 29.5698 46.4972C28.875 45.1335 28.875 43.3484 28.875 39.778V38.928ZM39.075 30.853H39.925C41.7452 30.853 42.9826 30.8547 43.939 30.9328C44.8707 31.0089 45.3471 31.1469 45.6795 31.3162C46.4791 31.7237 47.1293 32.3739 47.5368 33.1736C47.7061 33.5059 47.8441 33.9823 47.9202 34.914C47.9983 35.8704 48 37.1078 48 38.928V39.778C48 41.5983 47.9983 42.8356 47.9202 43.7921C47.8441 44.7237 47.7061 45.2001 47.5368 45.5325C47.1293 46.3322 46.4791 46.9823 45.6795 47.3898C45.3471 47.5591 44.8707 47.6971 43.939 47.7732C42.9826 47.8514 41.7452 47.853 39.925 47.853H39.075C37.2548 47.853 36.0174 47.8514 35.061 47.7732C34.1293 47.6971 33.6529 47.5591 33.3205 47.3898C32.5208 46.9823 31.8707 46.3322 31.4632 45.5325C31.2939 45.2001 31.1559 44.7237 31.0798 43.7921C31.0016 42.8356 31 41.5983 31 39.778V38.928C31 37.1078 31.0016 35.8704 31.0798 34.914C31.1559 33.9823 31.2939 33.5059 31.4632 33.1736C31.8707 32.3739 32.5208 31.7237 33.3205 31.3162C33.6529 31.1469 34.1293 31.0089 35.061 30.9328C36.0174 30.8547 37.2548 30.853 39.075 30.853Z" fill="#1A1A1A"/>
<defs>
<linearGradient id="paint0_linear_6_146" x1="39.5" y1="2.1765" x2="39.5" y2="76.5295" gradientUnits="userSpaceOnUse">
<stop offset="0.278527" stop-color="#2F2F37"/>
<stop offset="1" stop-color="#2F2F37" stop-opacity="0"/>
</linearGradient>
<radialGradient id="paint1_radial_6_146" cx="0" cy="0" r="1" gradientUnits="userSpaceOnUse" gradientTransform="translate(35.25 46.7905) rotate(-55.3758) scale(27.1146)">
<stop stop-color="#B13589"/>
<stop offset="0.79309" stop-color="#C62F94"/>
<stop offset="1" stop-color="#8A3AC8"/>
</radialGradient>
<radialGradient id="paint2_radial_6_146" cx="0" cy="0" r="1" gradientUnits="userSpaceOnUse" gradientTransform="translate(34.1875 55.2905) rotate(-65.1363) scale(24.0064)">
<stop stop-color="#E0E8B7"/>
<stop offset="0.444662" stop-color="#FB8A2E"/>
<stop offset="0.71474" stop-color="#E2425C"/>
<stop offset="1" stop-color="#E2425C" stop-opacity="0"/>
</radialGradient>
</defs>
</svg>
