<svg width="78" height="78" viewBox="0 0 78 78" fill="none" xmlns="http://www.w3.org/2000/svg">
<rect x="1.24999" y="1.45593" width="75.7941" height="75.7941" rx="37.8971" fill="#1C1C21"/>
<rect x="1.24999" y="1.45593" width="75.7941" height="75.7941" rx="37.8971" stroke="url(#paint0_linear_6_139)" stroke-width="1.44118"/>
<g clip-path="url(#clip0_6_139)">
<path d="M22.3339 24.9458C22.3339 23.6172 23.4453 22.5398 24.816 22.5398H53.44C54.8107 22.5398 55.9221 23.6172 55.9221 24.9458V53.722C55.9221 55.051 54.8107 56.1281 53.44 56.1281H24.816C23.4453 56.1281 22.3339 55.051 22.3339 53.722V24.9458Z" fill="white"/>
<path d="M29.979 33.4196C31.7479 33.4196 32.8493 32.2548 32.8493 30.7993C32.8164 29.311 31.7483 28.1787 30.0125 28.1787C28.2771 28.1787 27.1426 29.311 27.1426 30.7993C27.1426 32.2548 28.2436 33.4196 29.9461 33.4196H29.979Z" fill="#0F0F0F"/>
<path d="M32.5156 50.656V35.489H27.4423V50.656H32.5156Z" fill="#0F0F0F"/>
<path d="M35.3229 50.6562H40.3962V42.1863C40.3962 41.7329 40.429 41.2802 40.563 40.9563C40.9299 40.0505 41.7643 39.1126 43.1661 39.1126C45.0019 39.1126 45.7363 40.5036 45.7363 42.5424V50.6562H50.8089V41.9598C50.8089 37.3011 48.3062 35.1335 44.9683 35.1335C42.2316 35.1335 41.0299 36.6536 40.3622 37.6889H40.3962V35.4892H35.3229C35.3893 36.9126 35.3229 50.6562 35.3229 50.6562Z" fill="#0F0F0F"/>
</g>
<defs>
<linearGradient id="paint0_linear_6_139" x1="39.147" y1="2.1765" x2="39.1471" y2="76.5295" gradientUnits="userSpaceOnUse">
<stop offset="0.278527" stop-color="#2F2F37"/>
<stop offset="1" stop-color="#2F2F37" stop-opacity="0"/>
</linearGradient>
<clipPath id="clip0_6_139">
<rect width="34" height="34" fill="white" transform="translate(22.147 22.353)"/>
</clipPath>
</defs>
</svg>
