<svg width="31" height="30" viewBox="0 0 31 30" fill="none" xmlns="http://www.w3.org/2000/svg">
<path d="M3.58518 15.9916L10.7219 21.5769C12.1492 22.6941 12.8629 23.2526 13.6862 23.4619C14.4104 23.646 15.1897 23.646 15.9139 23.4619C16.7371 23.2526 17.4508 22.6941 18.8781 21.5769L26.0149 15.9916L26.0254 15.9846L26.0307 15.9808L26.0395 15.9739C27.4492 14.8685 28.1576 14.3124 28.4236 13.6717C28.5414 13.3884 28.6 13.0942 28.6 12.8V16.4C28.6 16.6942 28.5414 16.9885 28.4236 17.2717C28.1565 17.9152 27.4434 18.4733 26.0201 19.5881L26.0149 19.5916L18.8781 25.1769C17.4508 26.2941 16.7371 26.8526 15.9139 27.0619C15.1897 27.246 14.4104 27.246 13.6862 27.0619C12.8629 26.8526 12.1492 26.2941 10.7219 25.1769L3.58518 19.5916L3.57991 19.5881C2.15667 18.4733 1.44358 17.9152 1.17639 17.2717C1.05862 16.9885 1.00003 16.6942 1.00003 16.3999L1.00003 12.8C1.00003 13.0942 1.05862 13.3884 1.17639 13.6717C1.44241 14.3124 2.15081 14.8685 3.56057 15.9739L3.56936 15.9808L3.57464 15.9846L3.58518 15.9916Z" fill="#DBDBDB"/>
<path d="M3.58518 15.9916C2.1577 14.8744 1.44382 14.3158 1.17639 13.6717C0.941165 13.1051 0.94122 12.4948 1.17645 11.9283C1.44387 11.2841 2.15761 10.7256 3.5851 9.6084L10.7219 4.0231C12.1494 2.90594 12.8631 2.34736 13.6861 2.13807C14.4101 1.95398 15.1899 1.95398 15.9139 2.13807C16.7369 2.34736 17.4507 2.90594 18.8782 4.0231L26.0149 9.6084C27.4424 10.7256 28.1562 11.2841 28.4236 11.9283C28.6588 12.4948 28.6589 13.1051 28.4236 13.6717C28.1562 14.3158 27.4423 14.8744 26.0149 15.9916L18.8781 21.5769C17.4508 22.6941 16.7371 23.2526 15.9139 23.4619C15.1897 23.646 14.4104 23.646 13.6862 23.4619C12.8629 23.2526 12.1492 22.6941 10.7219 21.5769L3.58518 15.9916Z" fill="white"/>
<path d="M11.7414 9.07647C11.0277 8.51788 10.6708 8.23859 10.5371 7.91653C10.4195 7.63325 10.4195 7.32809 10.5371 7.0448C10.6708 6.72274 11.0277 6.44345 11.7414 5.88487L12.7609 5.08697C13.4747 4.52839 13.8316 4.24909 14.2431 4.14445C14.6051 4.0524 14.995 4.0524 15.357 4.14445C15.7685 4.24909 16.1254 4.52839 16.8391 5.08697L17.8586 5.88487C18.5724 6.44345 18.9292 6.72274 19.063 7.0448C19.1806 7.32809 19.1806 7.63325 19.063 7.91653C18.9292 8.23859 18.5724 8.51788 17.8586 9.07646L16.8391 9.87436C16.1254 10.4329 15.7685 10.7122 15.357 10.8169C14.995 10.9089 14.6051 10.9089 14.2431 10.8169C13.8316 10.7122 13.4747 10.4329 12.7609 9.87436L11.7414 9.07647Z" fill="#FF8686"/>
<path d="M18.5383 14.3958C17.8246 13.8372 17.4677 13.5579 17.334 13.2359C17.2164 12.9526 17.2164 12.6474 17.334 12.3641C17.4677 12.0421 17.8246 11.7628 18.5383 11.2042L19.5579 10.4063C20.2716 9.84772 20.6285 9.56842 21.04 9.46378C21.402 9.37174 21.7919 9.37174 22.1539 9.46378C22.5654 9.56842 22.9223 9.84772 23.636 10.4063L24.6556 11.2042C25.3693 11.7628 25.7262 12.0421 25.8599 12.3641C25.9775 12.6474 25.9775 12.9526 25.8599 13.2359C25.7262 13.5579 25.3693 13.8372 24.6556 14.3958L23.636 15.1937C22.9223 15.7523 22.5654 16.0316 22.1539 16.1362C21.7919 16.2283 21.402 16.2283 21.04 16.1362C20.6285 16.0316 20.2716 15.7523 19.5579 15.1937L18.5383 14.3958Z" fill="#5AFF88"/>
<path d="M4.94448 14.3958C4.23074 13.8372 3.87387 13.5579 3.74016 13.2359C3.62254 12.9526 3.62254 12.6474 3.74016 12.3641C3.87387 12.0421 4.23074 11.7628 4.94448 11.2042L5.96402 10.4063C6.67777 9.84772 7.03464 9.56842 7.44616 9.46378C7.80814 9.37174 8.19806 9.37174 8.56004 9.46378C8.97156 9.56842 9.32843 9.84772 10.0422 10.4063L17.8586 16.5235C18.5724 17.0821 18.9292 17.3614 19.063 17.6835C19.1806 17.9667 19.1806 18.2719 19.063 18.5552C18.9292 18.8773 18.5724 19.1565 17.8586 19.7151L16.8391 20.513C16.1254 21.0716 15.7685 21.3509 15.357 21.4555C14.995 21.5476 14.6051 21.5476 14.2431 21.4555C13.8316 21.3509 13.4747 21.0716 12.7609 20.513L4.94448 14.3958Z" fill="#768CFF"/>
</svg>
