<svg width="31" height="30" viewBox="0 0 31 30" fill="none" xmlns="http://www.w3.org/2000/svg">
<path d="M28.5293 0H2.96484C1.74023 0 0.75 0.966797 0.75 2.16211V27.832C0.75 29.0273 1.74023 30 2.96484 30H28.5293C29.7539 30 30.75 29.0273 30.75 27.8379V2.16211C30.75 0.966797 29.7539 0 28.5293 0ZM9.65039 25.5645H5.19727V11.2441H9.65039V25.5645ZM7.42383 9.29297C5.99414 9.29297 4.83984 8.13867 4.83984 6.71484C4.83984 5.29102 5.99414 4.13672 7.42383 4.13672C8.84766 4.13672 10.002 5.29102 10.002 6.71484C10.002 8.13281 8.84766 9.29297 7.42383 9.29297ZM26.3145 25.5645H21.8672V18.6035C21.8672 16.9453 21.8379 14.8066 19.5527 14.8066C17.2383 14.8066 16.8867 16.6172 16.8867 18.4863V25.5645H12.4453V11.2441H16.7109V13.2012H16.7695C17.3613 12.0762 18.8145 10.8867 20.9766 10.8867C25.4824 10.8867 26.3145 13.8516 26.3145 17.707V25.5645Z" fill="white"/>
</svg>
