<svg width="45" height="44" viewBox="0 0 45 44" fill="none" xmlns="http://www.w3.org/2000/svg">
<path fill-rule="evenodd" clip-rule="evenodd" d="M22.8334 2.75C23.5928 2.75 24.2084 3.36561 24.2084 4.125V8.25C24.2084 9.00939 23.5928 9.625 22.8334 9.625C22.074 9.625 21.4584 9.00939 21.4584 8.25V4.125C21.4584 3.36561 22.074 2.75 22.8334 2.75ZM11.1661 7.58274C11.7031 7.04577 12.5737 7.04577 13.1107 7.58274L16.0275 10.4996C16.5644 11.0365 16.5644 11.9071 16.0275 12.4441C15.4905 12.9811 14.6199 12.9811 14.0829 12.4441L11.1661 9.52728C10.6291 8.99031 10.6291 8.11971 11.1661 7.58274ZM34.5006 7.58274C35.0376 8.11971 35.0376 8.99031 34.5006 9.52728L31.5838 12.4441C31.0468 12.9811 30.1763 12.9811 29.6393 12.4441C29.1023 11.9071 29.1023 11.0365 29.6393 10.4996L32.5561 7.58274C33.0931 7.04577 33.9637 7.04577 34.5006 7.58274ZM22.0054 15.8249C22.5771 15.6718 23.1827 15.9016 23.5088 16.3955L33.0919 30.9098C33.3983 31.3739 33.395 31.9768 33.0835 32.4375C32.772 32.8982 32.2136 33.1259 31.6688 33.0145L27.8238 32.2277L29.7391 39.3758C29.9356 40.1093 29.5003 40.8633 28.7668 41.0598C28.0333 41.2563 27.2793 40.821 27.0828 40.0875L25.1675 32.9395L22.2315 35.5431C21.8154 35.9121 21.218 35.9941 20.7179 35.7509C20.2177 35.5077 19.9134 34.9871 19.9467 34.432L20.9888 17.0707C21.0242 16.4799 21.4337 15.9781 22.0054 15.8249ZM6.33337 19.25C6.33337 18.4906 6.94898 17.875 7.70837 17.875H11.8334C12.5928 17.875 13.2084 18.4906 13.2084 19.25C13.2084 20.0094 12.5928 20.625 11.8334 20.625H7.70837C6.94898 20.625 6.33337 20.0094 6.33337 19.25ZM32.4584 19.25C32.4584 18.4906 33.074 17.875 33.8334 17.875H37.9584C38.7178 17.875 39.3334 18.4906 39.3334 19.25C39.3334 20.0094 38.7178 20.625 37.9584 20.625H33.8334C33.074 20.625 32.4584 20.0094 32.4584 19.25ZM16.0275 26.0559C16.5644 26.5929 16.5644 27.4635 16.0275 28.0004L13.1107 30.9173C12.5737 31.4542 11.7031 31.4542 11.1661 30.9173C10.6291 30.3803 10.6291 29.5097 11.1661 28.9727L14.0829 26.0559C14.6199 25.5189 15.4905 25.5189 16.0275 26.0559Z" fill="url(#paint0_linear_1_212)"/>
<defs>
<linearGradient id="paint0_linear_1_212" x1="22.8334" y1="2.75" x2="22.8334" y2="41.107" gradientUnits="userSpaceOnUse">
<stop stop-color="#EF3C87"/>
<stop offset="0.725" stop-color="#9F0244"/>
</linearGradient>
</defs>
</svg>
