<svg width="21" height="38" viewBox="0 0 21 38" fill="none" xmlns="http://www.w3.org/2000/svg">
<path d="M0.171962 19C0.171962 14.0979 0.160093 9.18398 0.171962 4.2819C0.171962 2.26409 1.19273 0.792285 2.98502 0.210682C3.41232 0.0682492 3.87523 0.00890208 4.32627 0.00890208C8.4687 -0.00296736 12.5993 -0.00296736 16.7298 0.00890208C19.1393 0.0207715 20.896 1.76558 20.896 4.1632C20.9079 14.0504 20.9079 23.9377 20.896 33.8368C20.896 36.2344 19.1393 37.9911 16.7417 37.9911C12.6467 38.003 8.55179 38.003 4.45683 37.9911C1.89303 37.9911 0.183832 36.3056 0.183832 33.7181C0.160093 28.8042 0.171962 23.9021 0.171962 19ZM10.5459 3.45104C9.73873 3.45104 8.93161 3.45104 8.12449 3.45104C7.48354 3.46291 7.12745 3.75964 7.11558 4.2819C7.10371 4.81602 7.43606 5.18398 8.05327 5.18398C9.71499 5.20772 11.3648 5.20772 13.0266 5.18398C13.62 5.17211 14.0236 4.76855 13.9999 4.2819C13.9761 3.78338 13.5844 3.45104 12.9791 3.45104C12.1601 3.45104 11.353 3.45104 10.5459 3.45104ZM10.5459 31.095C9.57256 31.095 8.80104 31.8546 8.81291 32.816C8.82478 33.7656 9.62003 34.5371 10.5696 34.5252C11.4954 34.5134 12.2432 33.7656 12.255 32.8279C12.255 31.8427 11.5191 31.1068 10.5459 31.095Z" fill="url(#paint0_linear_1_222)"/>
<defs>
<linearGradient id="paint0_linear_1_222" x1="10.5358" y1="0" x2="10.5358" y2="38" gradientUnits="userSpaceOnUse">
<stop stop-color="#EF3C87"/>
<stop offset="0.725" stop-color="#9F0244"/>
</linearGradient>
</defs>
</svg>
