<svg width="40" height="40" viewBox="0 0 40 40" fill="none" xmlns="http://www.w3.org/2000/svg">
<path fill-rule="evenodd" clip-rule="evenodd" d="M14.6667 6.25C15.2806 6.25 15.8201 6.65697 15.9888 7.24726L17.4796 12.4653C18.1322 14.7492 19.9175 16.5345 22.2014 17.187L27.4194 18.6779C28.0097 18.8466 28.4167 19.3861 28.4167 20C28.4167 20.6139 28.0097 21.1534 27.4194 21.3221L22.2014 22.813C19.9175 23.4655 18.1322 25.2508 17.4796 27.5347L15.9888 32.7527C15.8201 33.343 15.2806 33.75 14.6667 33.75C14.0528 33.75 13.5132 33.343 13.3446 32.7527L11.8537 27.5347C11.2012 25.2508 9.41589 23.4655 7.13196 22.813L1.91395 21.3221C1.32366 21.1534 0.916687 20.6139 0.916687 20C0.916687 19.3861 1.32366 18.8466 1.91395 18.6779L7.13196 17.187C9.41589 16.5345 11.2012 14.7492 11.8537 12.4653L13.3446 7.24726C13.5132 6.65697 14.0528 6.25 14.6667 6.25Z" fill="url(#paint0_linear_1_197)"/>
<path fill-rule="evenodd" clip-rule="evenodd" d="M31.1667 0.75C31.7976 0.75 32.3476 1.17941 32.5006 1.79151L32.9752 3.68986C33.4063 5.41411 34.7526 6.76041 36.4768 7.19147L38.3752 7.66605C38.9873 7.81908 39.4167 8.36906 39.4167 9C39.4167 9.63094 38.9873 10.1809 38.3752 10.3339L36.4768 10.8085C34.7526 11.2396 33.4063 12.5859 32.9752 14.3101L32.5006 16.2085C32.3476 16.8206 31.7976 17.25 31.1667 17.25C30.5357 17.25 29.9858 16.8206 29.8327 16.2085L29.3582 14.3101C28.9271 12.5859 27.5808 11.2396 25.8565 10.8085L23.9582 10.3339C23.3461 10.1809 22.9167 9.63094 22.9167 9C22.9167 8.36906 23.3461 7.81908 23.9582 7.66605L25.8565 7.19147C27.5808 6.76041 28.9271 5.41411 29.3582 3.68986L29.8327 1.79151C29.9858 1.17941 30.5357 0.75 31.1667 0.75Z" fill="url(#paint1_linear_1_197)"/>
<path fill-rule="evenodd" clip-rule="evenodd" d="M28.4167 25.5C29.0085 25.5 29.534 25.8787 29.7211 26.4402L30.4439 28.6085C30.7176 29.4297 31.362 30.0741 32.1832 30.3478L34.3515 31.0706C34.913 31.2577 35.2917 31.7832 35.2917 32.375C35.2917 32.9668 34.913 33.4923 34.3515 33.6794L32.1832 34.4022C31.362 34.6759 30.7176 35.3203 30.4439 36.1415L29.7211 38.3098C29.534 38.8713 29.0085 39.25 28.4167 39.25C27.8248 39.25 27.2994 38.8713 27.1122 38.3098L26.3895 36.1415C26.1157 35.3203 25.4714 34.6759 24.6502 34.4022L22.4819 33.6794C21.9204 33.4923 21.5417 32.9668 21.5417 32.375C21.5417 31.7832 21.9204 31.2577 22.4819 31.0706L24.6502 30.3478C25.4714 30.0741 26.1157 29.4297 26.3895 28.6085L27.1122 26.4402C27.2994 25.8787 27.8248 25.5 28.4167 25.5Z" fill="url(#paint2_linear_1_197)"/>
<defs>
<linearGradient id="paint0_linear_1_197" x1="20.1667" y1="0.75" x2="20.1667" y2="39.25" gradientUnits="userSpaceOnUse">
<stop stop-color="#EF3C87"/>
<stop offset="0.725" stop-color="#9F0244"/>
</linearGradient>
<linearGradient id="paint1_linear_1_197" x1="20.1667" y1="0.75" x2="20.1667" y2="39.25" gradientUnits="userSpaceOnUse">
<stop stop-color="#EF3C87"/>
<stop offset="0.725" stop-color="#9F0244"/>
</linearGradient>
<linearGradient id="paint2_linear_1_197" x1="20.1667" y1="0.75" x2="20.1667" y2="39.25" gradientUnits="userSpaceOnUse">
<stop stop-color="#EF3C87"/>
<stop offset="0.725" stop-color="#9F0244"/>
</linearGradient>
</defs>
</svg>
