<svg width="45" height="44" viewBox="0 0 45 44" fill="none" xmlns="http://www.w3.org/2000/svg">
<path fill-rule="evenodd" clip-rule="evenodd" d="M27.2946 2.92408C27.8469 3.23197 28.1179 3.87682 27.9516 4.48683L24.3002 17.875H37.625C38.1726 17.875 38.6679 18.1999 38.8861 18.702C39.1043 19.2042 39.0038 19.788 38.6302 20.1882L19.3802 40.8132C18.9488 41.2755 18.2577 41.3839 17.7055 41.076C17.1532 40.7681 16.8821 40.1233 17.0485 39.5133L20.6998 26.125H7.37503C6.82751 26.125 6.33217 25.8002 6.11395 25.298C5.89574 24.7959 5.99625 24.2121 6.36983 23.8119L25.6198 3.18686C26.0513 2.72462 26.7423 2.61618 27.2946 2.92408Z" fill="url(#paint0_linear_1_229)"/>
<defs>
<linearGradient id="paint0_linear_1_229" x1="22.5" y1="2.75" x2="22.5" y2="41.2501" gradientUnits="userSpaceOnUse">
<stop stop-color="#EF3C87"/>
<stop offset="0.725" stop-color="#9F0244"/>
</linearGradient>
</defs>
</svg>
