<svg width="34" height="34" viewBox="0 0 34 34" fill="none" xmlns="http://www.w3.org/2000/svg">
<path d="M5.83337 0.5C2.79581 0.5 0.333374 2.96243 0.333374 6V10.125C0.333374 13.1626 2.79581 15.625 5.83337 15.625H9.95837C12.9959 15.625 15.4584 13.1626 15.4584 10.125V6C15.4584 2.96243 12.9959 0.5 9.95837 0.5H5.83337Z" fill="url(#paint0_linear_1_238)"/>
<path d="M23.7084 0.5C20.6708 0.5 18.2084 2.96243 18.2084 6V10.125C18.2084 13.1626 20.6708 15.625 23.7084 15.625H27.8334C30.8709 15.625 33.3334 13.1626 33.3334 10.125V6C33.3334 2.96243 30.8709 0.5 27.8334 0.5H23.7084Z" fill="url(#paint1_linear_1_238)"/>
<path d="M5.83337 18.375C2.79581 18.375 0.333374 20.8374 0.333374 23.875V28C0.333374 31.0376 2.79581 33.5 5.83337 33.5H9.95837C12.9959 33.5 15.4584 31.0376 15.4584 28V23.875C15.4584 20.8374 12.9959 18.375 9.95837 18.375H5.83337Z" fill="url(#paint2_linear_1_238)"/>
<path d="M27.1459 19.75C27.1459 18.9906 26.5303 18.375 25.7709 18.375C25.0115 18.375 24.3959 18.9906 24.3959 19.75V24.5625H19.5834C18.824 24.5625 18.2084 25.1781 18.2084 25.9375C18.2084 26.6969 18.824 27.3125 19.5834 27.3125H24.3959V32.125C24.3959 32.8844 25.0115 33.5 25.7709 33.5C26.5303 33.5 27.1459 32.8844 27.1459 32.125V27.3125H31.9584C32.7178 27.3125 33.3334 26.6969 33.3334 25.9375C33.3334 25.1781 32.7178 24.5625 31.9584 24.5625H27.1459V19.75Z" fill="url(#paint3_linear_1_238)"/>
<defs>
<linearGradient id="paint0_linear_1_238" x1="16.8334" y1="0.5" x2="16.8334" y2="33.5" gradientUnits="userSpaceOnUse">
<stop stop-color="#EF3C87"/>
<stop offset="0.725" stop-color="#9F0244"/>
</linearGradient>
<linearGradient id="paint1_linear_1_238" x1="16.8334" y1="0.5" x2="16.8334" y2="33.5" gradientUnits="userSpaceOnUse">
<stop stop-color="#EF3C87"/>
<stop offset="0.725" stop-color="#9F0244"/>
</linearGradient>
<linearGradient id="paint2_linear_1_238" x1="16.8334" y1="0.5" x2="16.8334" y2="33.5" gradientUnits="userSpaceOnUse">
<stop stop-color="#EF3C87"/>
<stop offset="0.725" stop-color="#9F0244"/>
</linearGradient>
<linearGradient id="paint3_linear_1_238" x1="16.8334" y1="0.5" x2="16.8334" y2="33.5" gradientUnits="userSpaceOnUse">
<stop stop-color="#EF3C87"/>
<stop offset="0.725" stop-color="#9F0244"/>
</linearGradient>
</defs>
</svg>
